<?xml version="1.0" standalone="no"?>
<!DOCTYPE svg PUBLIC "-//W3C//DTD SVG 20010904//EN"
 "http://www.w3.org/TR/2001/REC-SVG-20010904/DTD/svg10.dtd">
<svg version="1.0" xmlns="http://www.w3.org/2000/svg"
 width="408.000000pt" height="127.000000pt" viewBox="0 0 408.000000 127.000000"
 preserveAspectRatio="xMidYMid meet">
<metadata>
Created by potrace 1.16, written by Peter Selinger 2001-2019
</metadata>
<g transform="translate(0.000000,127.000000) scale(0.100000,-0.100000)"
fill="#000000" stroke="none">
<path d="M0 635 l0 -635 2040 0 2040 0 0 635 0 635 -2040 0 -2040 0 0 -635z
m2708 500 c103 -47 164 -129 186 -251 6 -40 -5 -44 -131 -44 -77 0 -93 3 -93
15 0 29 -38 90 -67 106 -64 37 -193 30 -248 -12 -19 -16 -25 -30 -25 -58 0
-62 39 -85 232 -137 215 -57 284 -98 333 -199 34 -68 38 -165 11 -245 -26 -73
-101 -149 -181 -181 -54 -21 -75 -24 -215 -24 -138 0 -161 3 -211 23 -110 44
-195 151 -218 274 -10 56 -14 54 115 64 l92 6 16 -50 c33 -97 132 -152 245
-136 117 16 186 110 135 182 -23 33 -55 46 -194 82 -169 44 -254 84 -308 145
-66 75 -86 165 -58 259 30 98 95 161 203 197 48 16 81 19 188 16 118 -3 136
-6 193 -32z m973 19 c79 -24 121 -48 172 -99 45 -45 95 -133 100 -177 2 -21
-5 -24 -88 -40 -122 -23 -119 -24 -140 22 -75 166 -320 166 -405 0 -53 -104
-53 -326 1 -431 28 -57 93 -106 154 -119 110 -23 205 32 250 145 13 33 30 61
37 62 7 2 54 -10 103 -25 85 -27 90 -30 88 -55 -3 -46 -60 -151 -109 -200 -88
-90 -189 -123 -351 -115 -133 6 -216 43 -303 134 -104 108 -146 239 -136 419
8 160 50 268 137 360 55 59 121 98 200 119 74 20 222 20 290 0z m-2711 -89 l0
-85 -150 0 -150 0 0 -430 0 -430 -115 0 -115 0 0 430 0 430 -150 0 -150 0 0
85 0 85 415 0 415 0 0 -85z m734 60 c100 -40 204 -166 236 -284 35 -133 30
-336 -11 -446 -30 -82 -93 -169 -146 -205 -94 -62 -145 -70 -434 -70 l-259 0
0 516 0 515 283 -3 c251 -3 287 -6 331 -23z"/>
<path d="M1310 635 l0 -348 134 6 c186 7 231 32 267 146 27 83 30 297 6 374
-38 120 -95 153 -280 163 l-127 7 0 -348z"/>
</g>
</svg>
