<?xml version="1.0" standalone="no"?>
<!DOCTYPE svg PUBLIC "-//W3C//DTD SVG 20010904//EN"
 "http://www.w3.org/TR/2001/REC-SVG-20010904/DTD/svg10.dtd">
<svg version="1.0" xmlns="http://www.w3.org/2000/svg"
 width="398.000000pt" height="120.000000pt" viewBox="0 0 398.000000 120.000000"
 preserveAspectRatio="xMidYMid meet">
<metadata>
Created by potrace 1.16, written by Peter Selinger 2001-2019
</metadata>
<g transform="translate(0.000000,120.000000) scale(0.100000,-0.100000)"
fill="#000000" stroke="none">
<path d="M2316 1110 c-68 -11 -148 -45 -193 -84 -18 -15 -44 -51 -59 -81 -23
-48 -26 -64 -22 -127 4 -83 24 -130 74 -182 50 -52 116 -82 266 -121 72 -20
150 -44 174 -54 101 -45 90 -162 -20 -212 -28 -13 -65 -19 -115 -19 -120 0
-179 39 -220 143 l-16 42 -93 -9 -93 -8 6 -42 c11 -66 53 -150 98 -194 85 -84
237 -123 396 -103 153 19 239 71 290 173 56 111 38 261 -40 339 -54 54 -120
84 -272 125 -72 19 -155 45 -183 58 -85 39 -94 106 -21 160 24 18 43 21 127
21 116 0 140 -12 180 -90 l25 -50 93 3 92 3 0 37 c0 42 -40 135 -73 171 -76
81 -246 124 -401 101z"/>
<path d="M3370 1109 c-193 -29 -329 -156 -375 -351 -19 -83 -19 -251 1 -338
52 -230 275 -377 517 -341 144 22 250 99 307 224 49 107 50 102 -27 125 -127
38 -116 40 -142 -23 -46 -110 -108 -154 -217 -155 -120 0 -207 71 -239 195
-19 76 -19 224 0 300 32 124 120 195 241 195 104 0 173 -40 209 -121 21 -45
21 -45 132 -23 l81 16 -13 38 c-52 147 -158 234 -315 259 -72 12 -82 12 -160
0z"/>
<path d="M70 1015 l0 -85 150 0 150 0 0 -430 0 -430 100 0 100 0 0 430 0 430
150 0 150 0 0 85 0 85 -400 0 -400 0 0 -85z"/>
<path d="M1010 585 l0 -515 208 0 c114 0 241 5 282 10 186 24 311 148 350 348
19 94 8 311 -19 386 -43 119 -104 194 -199 241 -68 34 -168 45 -424 45 l-198
0 0 -515z m527 317 c90 -47 116 -118 117 -317 1 -172 -14 -234 -68 -289 -46
-45 -94 -56 -245 -56 l-131 0 0 346 0 346 143 -4 c123 -3 148 -6 184 -26z"/>
</g>
</svg>
