<?xml version="1.0" standalone="no"?>
<!DOCTYPE svg PUBLIC "-//W3C//DTD SVG 20010904//EN"
 "http://www.w3.org/TR/2001/REC-SVG-20010904/DTD/svg10.dtd">
<svg version="1.0" xmlns="http://www.w3.org/2000/svg"
 width="404.000000pt" height="127.000000pt" viewBox="0 0 404.000000 127.000000"
 preserveAspectRatio="xMidYMid meet">
<metadata>
Created by potrace 1.16, written by Peter Selinger 2001-2019
</metadata>
<g transform="translate(0.000000,127.000000) scale(0.100000,-0.100000)"
fill="#000000" stroke="none">
<path d="M2265 1176 c-108 -29 -168 -70 -209 -145 -58 -107 -43 -227 39 -319
54 -60 117 -90 293 -137 146 -38 183 -54 206 -87 28 -40 20 -86 -22 -128 -41
-41 -92 -60 -162 -60 -119 0 -185 51 -224 173 -6 20 1 20 -154 1 -52 -6 -53
-7 -47 -33 18 -79 41 -133 74 -177 77 -102 171 -139 356 -139 99 0 132 4 187
23 84 29 148 84 185 160 55 114 29 268 -59 348 -52 46 -122 77 -250 110 -209
52 -258 80 -258 141 0 62 68 103 170 103 99 0 159 -38 182 -113 l12 -40 74 7
c41 3 88 6 104 6 29 0 30 1 23 43 -19 114 -94 206 -201 247 -74 28 -243 37
-319 16z"/>
<path d="M3313 1176 c-126 -32 -242 -124 -296 -236 -54 -112 -72 -292 -42
-433 27 -130 114 -251 221 -309 177 -96 410 -70 539 58 47 47 119 181 113 210
-2 11 -34 26 -98 45 -52 16 -96 29 -97 29 -2 0 -3 -8 -3 -17 0 -30 -46 -116
-76 -145 -124 -116 -328 -52 -381 119 -27 88 -24 278 6 355 76 195 352 215
433 30 16 -35 23 -41 41 -37 12 3 55 12 96 20 41 9 76 17 78 19 7 7 -37 110
-63 148 -34 49 -109 104 -177 130 -66 26 -221 33 -294 14z"/>
<path d="M50 1085 l0 -85 150 0 150 0 0 -430 0 -430 105 0 105 0 0 430 0 430
150 0 150 0 0 85 0 85 -405 0 -405 0 0 -85z"/>
<path d="M1000 655 l0 -515 233 0 c248 0 329 10 407 50 91 46 169 159 201 290
19 79 17 279 -4 360 -48 181 -155 290 -312 319 -32 6 -164 11 -292 11 l-233 0
0 -515z m520 315 c94 -53 124 -139 118 -344 -3 -126 -6 -147 -30 -197 -44 -97
-98 -119 -285 -119 l-123 0 0 346 0 346 138 -4 c123 -3 142 -6 182 -28z"/>
</g>
</svg>
